<?xml version="1.0" encoding="utf-8"?>
<!-- Generator: Adobe Illustrator 21.0.2, SVG Export Plug-In . SVG Version: 6.00 Build 0)  -->
<svg version="1.1" id="Capa_1" xmlns="http://www.w3.org/2000/svg" xmlns:xlink="http://www.w3.org/1999/xlink" x="0px" y="0px"
	 viewBox="0 0 20 20" style="enable-background:new 0 0 20 20;" xml:space="preserve">
<g>
	<g>
		<g>
			<path d="M13.3,8.8C13.3,8.4,13,8,12.6,8H5C4.5,8,4.2,8.4,4.2,8.8S4.5,9.5,5,9.5h7.6C13,9.5,13.3,9.2,13.3,8.8z"/>
			<path d="M5,11c-0.4,0-0.7,0.3-0.7,0.7c0,0.4,0.3,0.7,0.7,0.7h4.6c0.4,0,0.7-0.3,0.7-0.7c0-0.4-0.3-0.7-0.7-0.7H5z"/>
			<path d="M6.7,18.1H4.2c-0.8,0-1.5-0.7-1.5-1.5v-13c0-0.8,0.7-1.5,1.5-1.5h9.1c0.8,0,1.5,0.7,1.5,1.5v4.5c0,0.4,0.3,0.7,0.7,0.7
				c0.4,0,0.7-0.3,0.7-0.7V3.6c0-1.6-1.3-3-3-3H4.2c-1.6,0-3,1.3-3,3v13c0,1.6,1.3,3,3,3h2.5c0.4,0,0.7-0.3,0.7-0.7
				C7.4,18.4,7.1,18.1,6.7,18.1z"/>
			<path d="M17.6,11.3c-0.9-0.9-2.3-0.9-3.1,0l-4.1,4.1c-0.1,0.1-0.1,0.2-0.2,0.3l-0.9,2.9c-0.1,0.3,0,0.5,0.2,0.7
				c0.1,0.1,0.3,0.2,0.5,0.2c0.1,0,0.1,0,0.2,0l3-0.8c0.1,0,0.2-0.1,0.3-0.2l4.1-4C18.5,13.6,18.5,12.2,17.6,11.3z M12.6,17.3
				l-1.5,0.4l0.4-1.4l2.7-2.7l1,1L12.6,17.3z M16.5,13.4l-0.1,0.1l-1-1l0.1-0.1c0.3-0.3,0.8-0.3,1,0C16.8,12.7,16.8,13.1,16.5,13.4z
				"/>
			<path d="M12.6,5.1H5c-0.4,0-0.7,0.3-0.7,0.7S4.5,6.5,5,6.5h7.6c0.4,0,0.7-0.3,0.7-0.7S13,5.1,12.6,5.1z"/>
		</g>
	</g>
</g>
</svg>
