<?xml version="1.0" standalone="no"?>
<!DOCTYPE svg PUBLIC "-//W3C//DTD SVG 20010904//EN"
 "http://www.w3.org/TR/2001/REC-SVG-20010904/DTD/svg10.dtd">
<svg version="1.0" xmlns="http://www.w3.org/2000/svg"
 width="32.000000pt" height="32.000000pt" viewBox="0 0 32.000000 32.000000"
 preserveAspectRatio="xMidYMid meet">

<g transform="translate(0.000000,32.000000) scale(0.100000,-0.100000)"
fill="#000000" stroke="none">
<path d="M4 160 c0 -91 2 -128 3 -82 2 45 2 119 0 165 -1 45 -3 8 -3 -83z"/>
<path d="M240 285 c0 -36 8 -43 28 -23 8 8 15 8 27 -2 23 -19 19 -32 -20 -70
-34 -33 -35 -36 -35 -112 l0 -78 40 0 40 0 0 160 0 160 -40 0 c-39 0 -40 -1
-40 -35z"/>
<path d="M20 160 l0 -150 105 0 105 0 0 67 0 67 -32 -31 c-34 -31 -69 -53 -87
-53 -22 0 12 59 64 110 50 49 55 59 55 97 l0 43 -105 0 -105 0 0 -150z m195
105 c0 -18 -8 -20 -87 -23 l-88 -3 0 26 0 26 88 -3 c79 -3 87 -5 87 -23z
m-115 -45 c0 -5 -11 -10 -25 -10 -14 0 -25 5 -25 10 0 6 11 10 25 10 14 0 25
-4 25 -10z m90 0 c0 -5 -16 -10 -36 -10 -21 0 -33 4 -29 10 3 6 19 10 36 10
16 0 29 -4 29 -10z m-25 -30 c4 -6 -17 -10 -54 -10 -34 0 -61 4 -61 10 0 6 24
10 54 10 30 0 58 -4 61 -10z m-30 -30 c4 -6 -12 -10 -39 -10 -25 0 -46 5 -46
10 0 6 18 10 39 10 22 0 43 -4 46 -10z m-25 -30 c0 -5 -13 -10 -30 -10 -16 0
-30 5 -30 10 0 6 14 10 30 10 17 0 30 -4 30 -10z m-15 -30 c4 -6 -5 -10 -19
-10 -14 0 -26 5 -26 10 0 6 9 10 19 10 11 0 23 -4 26 -10z m-15 -30 c0 -5 -7
-10 -15 -10 -8 0 -15 5 -15 10 0 6 7 10 15 10 8 0 15 -4 15 -10z m120 -30 c0
-6 -32 -10 -75 -10 -43 0 -75 4 -75 10 0 6 32 10 75 10 43 0 75 -4 75 -10z"/>
<path d="M50 270 c0 -6 32 -10 75 -10 43 0 75 4 75 10 0 6 -32 10 -75 10 -43
0 -75 -4 -75 -10z"/>
<path d="M275 240 c3 -5 11 -10 16 -10 6 0 7 5 4 10 -3 6 -11 10 -16 10 -6 0
-7 -4 -4 -10z"/>
<path d="M197 172 c-59 -59 -66 -72 -44 -72 17 0 129 114 121 123 -12 12 -18
8 -77 -51z"/>
</g>
</svg>
