<?xml version="1.0" encoding="utf-8"?>
<!-- Generator: Adobe Illustrator 21.0.2, SVG Export Plug-In . SVG Version: 6.00 Build 0)  -->
<svg version="1.1" id="Layer_1" xmlns="http://www.w3.org/2000/svg" xmlns:xlink="http://www.w3.org/1999/xlink" x="0px" y="0px"
	 viewBox="0 0 354.9 163.2" style="enable-background:new 0 0 354.9 163.2;" xml:space="preserve">
<style type="text/css">
	.st0{fill:url(#SVGID_1_);}
	.st1{fill:url(#SVGID_2_);}
	.st2{fill:url(#SVGID_3_);}
	.st3{fill:url(#SVGID_4_);}
	.st4{fill:url(#SVGID_5_);}
	.st5{fill:#F9AC1B;}
	.st6{fill:#221F1F;}
	.st7{fill:url(#SVGID_6_);}
	.st8{fill:url(#SVGID_7_);}
	.st9{fill:url(#SVGID_8_);}
	.st10{fill:url(#SVGID_9_);}
	.st11{fill:url(#SVGID_10_);}
	.st12{fill:#E6E7E8;}
</style>
<g>
	
		<linearGradient id="SVGID_1_" gradientUnits="userSpaceOnUse" x1="-96.9149" y1="-589.7594" x2="-95.2466" y2="-589.7594" gradientTransform="matrix(-65.2068 0 0 -65.2068 -6077.9731 -38932.9531)">
		<stop  offset="0" style="stop-color:#304598"/>
		<stop  offset="0.1807" style="stop-color:#304598"/>
		<stop  offset="0.3936" style="stop-color:#3C56A4"/>
		<stop  offset="0.5569" style="stop-color:#43B4E7"/>
		<stop  offset="0.5762" style="stop-color:#62BFEA"/>
		<stop  offset="0.6041" style="stop-color:#88CCEF"/>
		<stop  offset="0.6318" style="stop-color:#A6D7F2"/>
		<stop  offset="0.6591" style="stop-color:#BBDEF4"/>
		<stop  offset="0.6855" style="stop-color:#C8E2F6"/>
		<stop  offset="0.7104" style="stop-color:#CCE4F6"/>
		<stop  offset="0.7346" style="stop-color:#C6E2F5"/>
		<stop  offset="0.7683" style="stop-color:#B3DBF3"/>
		<stop  offset="0.8076" style="stop-color:#96D1F0"/>
		<stop  offset="0.8509" style="stop-color:#6DC3EC"/>
		<stop  offset="0.8886" style="stop-color:#43B4E7"/>
		<stop  offset="1" style="stop-color:#43B4E7"/>
	</linearGradient>
	<path class="st0" d="M132.8-471.1c31.8,0,63.5,0,95.3,0c4.5,0,9,0,13.5,0c7.1,0,7.2-11.1,0-11.1c-31.8,0-63.5,0-95.3,0
		c-4.5,0-9,0-13.5,0C125.6-482.2,125.6-471.1,132.8-471.1z"/>
	
		<linearGradient id="SVGID_2_" gradientUnits="userSpaceOnUse" x1="-91.9397" y1="-588.6285" x2="-90.2713" y2="-588.6285" gradientTransform="matrix(206.3112 0 0 206.3112 18983.2305 121031.875)">
		<stop  offset="0" style="stop-color:#F7AB1B"/>
		<stop  offset="5.940594e-02" style="stop-color:#FFC70F"/>
		<stop  offset="6.760246e-02" style="stop-color:#FFC817"/>
		<stop  offset="8.044036e-02" style="stop-color:#FFCC2D"/>
		<stop  offset="9.621588e-02" style="stop-color:#FFD252"/>
		<stop  offset="0.1114" style="stop-color:#FFD97B"/>
		<stop  offset="0.4635" style="stop-color:#FDE7A3"/>
		<stop  offset="0.5347" style="stop-color:#FDEAAC"/>
		<stop  offset="0.9381" style="stop-color:#FFD97B"/>
		<stop  offset="0.9466" style="stop-color:#FFD24F"/>
		<stop  offset="0.9579" style="stop-color:#FFC70F"/>
		<stop  offset="0.9752" style="stop-color:#FDBF12"/>
		<stop  offset="1" style="stop-color:#F7AB1B"/>
	</linearGradient>
	<path class="st1" d="M15-403.2c11.4,0,22.8,0,34.2,0c27.4,0,54.7,0,82.1,0c33.1,0,66.2,0,99.4,0c28.7,0,57.3,0,86,0
		c13.9,0,28,0.6,42,0c0.2,0,0.4,0,0.6,0c7.1,0,7.2-11.1,0-11.1c-11.4,0-22.8,0-34.2,0c-27.4,0-54.7,0-82.1,0c-33.4,0-65.9,0-99.4,0
		c-28.7,0-57.3,0-86,0c-13.9,0-28-0.6-42,0c-0.2,0-0.4,0-0.6,0C7.9-414.4,7.9-403.2,15-403.2z"/>
	
		<linearGradient id="SVGID_3_" gradientUnits="userSpaceOnUse" x1="-93.9976" y1="-585.4622" x2="-92.3293" y2="-585.4622" gradientTransform="matrix(4.000000e-15 -57.3585 57.3585 4.000000e-15 33659.6016 -5820.356)">
		<stop  offset="0" style="stop-color:#304598"/>
		<stop  offset="0.1807" style="stop-color:#304598"/>
		<stop  offset="0.3936" style="stop-color:#3C56A4"/>
		<stop  offset="0.5569" style="stop-color:#43B4E7"/>
		<stop  offset="0.5762" style="stop-color:#62BFEA"/>
		<stop  offset="0.6041" style="stop-color:#88CCEF"/>
		<stop  offset="0.6318" style="stop-color:#A6D7F2"/>
		<stop  offset="0.6591" style="stop-color:#BBDEF4"/>
		<stop  offset="0.6855" style="stop-color:#C8E2F6"/>
		<stop  offset="0.7104" style="stop-color:#CCE4F6"/>
		<stop  offset="0.7346" style="stop-color:#C6E2F5"/>
		<stop  offset="0.7683" style="stop-color:#B3DBF3"/>
		<stop  offset="0.8076" style="stop-color:#96D1F0"/>
		<stop  offset="0.8509" style="stop-color:#6DC3EC"/>
		<stop  offset="0.8886" style="stop-color:#43B4E7"/>
		<stop  offset="1" style="stop-color:#43B4E7"/>
	</linearGradient>
	<path class="st2" d="M56-432.3c-9.1-15.7-18.1-31.4-27.2-47.1c0,1.9,0,3.7,0,5.6c9.1-15.7,18.1-31.4,27.2-47.1c-3.2,0-6.4,0-9.6,0
		c15.9,27.5,31.8,55,47.7,82.5c2.2,3.9,4.5,7.8,6.7,11.7c2.1,3.6,7.5,3.6,9.6,0c8.1-14,16.2-28,24.2-42c1-1.7,2.2-3.4,3-5.1
		c1.5-3.4,0-5.7-1.7-8.5c-4.6-8-9.3-16-13.9-24.1c-3.9-6.7-7.8-13.4-11.6-20.2c-3.6-6.2-13.2-0.6-9.6,5.6
		c9.1,15.7,18.1,31.4,27.2,47.1c0-1.9,0-3.7,0-5.6c-9.1,15.7-18.1,31.4-27.2,47.1c3.2,0,6.4,0,9.6,0c-15.9-27.5-31.8-55-47.7-82.5
		c-2.2-3.9-4.5-7.8-6.7-11.7c-2.1-3.6-7.5-3.6-9.6,0c-8.1,14-16.2,28-24.2,42c-1,1.7-2.2,3.4-3,5.1c-1.5,3.4,0,5.7,1.7,8.5
		c4.6,8,9.3,16,13.9,24.1c3.9,6.7,7.8,13.4,11.6,20.2C49.9-420.5,59.5-426.1,56-432.3z"/>
	
		<linearGradient id="SVGID_4_" gradientUnits="userSpaceOnUse" x1="-94.0043" y1="-584.6829" x2="-92.336" y2="-584.6829" gradientTransform="matrix(4.000000e-15 -56.9146 56.9146 4.000000e-15 33462.1602 -5779.3848)">
		<stop  offset="0" style="stop-color:#304598"/>
		<stop  offset="0.1807" style="stop-color:#304598"/>
		<stop  offset="0.3936" style="stop-color:#3C56A4"/>
		<stop  offset="0.5569" style="stop-color:#43B4E7"/>
		<stop  offset="0.5762" style="stop-color:#62BFEA"/>
		<stop  offset="0.6041" style="stop-color:#88CCEF"/>
		<stop  offset="0.6318" style="stop-color:#A6D7F2"/>
		<stop  offset="0.6591" style="stop-color:#BBDEF4"/>
		<stop  offset="0.6855" style="stop-color:#C8E2F6"/>
		<stop  offset="0.7104" style="stop-color:#CCE4F6"/>
		<stop  offset="0.7346" style="stop-color:#C6E2F5"/>
		<stop  offset="0.7683" style="stop-color:#B3DBF3"/>
		<stop  offset="0.8076" style="stop-color:#96D1F0"/>
		<stop  offset="0.8509" style="stop-color:#6DC3EC"/>
		<stop  offset="0.8886" style="stop-color:#43B4E7"/>
		<stop  offset="1" style="stop-color:#43B4E7"/>
	</linearGradient>
	<path class="st3" d="M225.9-435.1c-18.1,0-36.3,0-54.4,0c1.6,0.9,3.2,1.8,4.8,2.8c-9.1-15.7-18.1-31.4-27.2-47.1c0,1.9,0,3.7,0,5.6
		c9.1-15.7,18.1-31.4,27.2-47.1c-1.6,0.9-3.2,1.8-4.8,2.8c18.1,0,36.3,0,54.4,0c7.1,0,7.2-11.1,0-11.1c-16.4,0-32.7,0-49.1,0
		c-2.1,0-4.7-0.4-6.8,0.2c-2.8,0.8-4,3.8-5.4,6.1c-4.7,8.2-9.5,16.4-14.2,24.6c-3.6,6.2-8,12.3-10.9,18.8
		c-2.4,5.5,4.3,13.3,6.9,17.8c5.2,8.9,10.3,17.9,15.5,26.8c2.7,4.7,4.6,10.8,10.8,10.9c17.7,0.5,35.4,0,53.1,0
		C233-424,233.1-435.1,225.9-435.1z"/>
	
		<linearGradient id="SVGID_5_" gradientUnits="userSpaceOnUse" x1="-94.0043" y1="-583.9042" x2="-92.336" y2="-583.9042" gradientTransform="matrix(4.000000e-15 -56.9146 56.9146 4.000000e-15 33528.4805 -5779.3848)">
		<stop  offset="0" style="stop-color:#304598"/>
		<stop  offset="0.1807" style="stop-color:#304598"/>
		<stop  offset="0.3936" style="stop-color:#3C56A4"/>
		<stop  offset="0.5569" style="stop-color:#43B4E7"/>
		<stop  offset="0.5762" style="stop-color:#62BFEA"/>
		<stop  offset="0.6041" style="stop-color:#88CCEF"/>
		<stop  offset="0.6318" style="stop-color:#A6D7F2"/>
		<stop  offset="0.6591" style="stop-color:#BBDEF4"/>
		<stop  offset="0.6855" style="stop-color:#C8E2F6"/>
		<stop  offset="0.7104" style="stop-color:#CCE4F6"/>
		<stop  offset="0.7346" style="stop-color:#C6E2F5"/>
		<stop  offset="0.7683" style="stop-color:#B3DBF3"/>
		<stop  offset="0.8076" style="stop-color:#96D1F0"/>
		<stop  offset="0.8509" style="stop-color:#6DC3EC"/>
		<stop  offset="0.8886" style="stop-color:#43B4E7"/>
		<stop  offset="1" style="stop-color:#43B4E7"/>
	</linearGradient>
	<path class="st4" d="M246.3-473.8c9.1-15.7,18.1-31.4,27.2-47.1c-1.6,0.9-3.2,1.8-4.8,2.8c18.1,0,36.3,0,54.4,0
		c-1.6-0.9-3.2-1.8-4.8-2.8c9.1,15.7,18.1,31.4,27.2,47.1c0-1.9,0-3.7,0-5.6c-9.1,15.7-18.1,31.4-27.2,47.1c1.6-0.9,3.2-1.8,4.8-2.8
		c-18.1,0-36.3,0-54.4,0c1.6,0.9,3.2,1.8,4.8,2.8c-9.1-15.7-18.1-31.4-27.2-47.1c-3.6-6.2-13.2-0.6-9.6,5.6c6,10.4,12,20.7,18,31.1
		c2.9,5,5.6,10.1,8.7,15.1c2.4,3.8,5.5,3.7,9.5,3.7c14.5,0,28.9,0,43.4,0c4.2,0,9,0.9,11.8-2.9c2.7-3.8,4.8-8.3,7.1-12.3
		c4-7,8.1-14,12.1-21c2.5-4.4,5.5-8.7,7.6-13.2c2.1-4.4-0.6-7.5-2.7-11.1c-3.6-6.3-7.3-12.6-10.9-18.9c-3.6-6.3-7.2-12.5-10.9-18.8
		c-2-3.5-3.4-6.9-8.1-7.1c-13.5-0.5-27,0-40.5,0c-4.3,0-8.8-0.4-13,0c-4.8,0.5-6.7,5.9-8.8,9.6c-7.2,12.4-14.4,24.9-21.6,37.3
		c-0.6,1-1.1,1.9-1.7,2.9C233.2-473.2,242.8-467.6,246.3-473.8z"/>
	<polygon class="st5" points="270.8,-476.6 283.3,-498.4 308.5,-498.4 321.1,-476.6 308.5,-454.8 283.3,-454.8 	"/>
	<path class="st6" d="M33.7-387.9h4l9.1,15.3c0.3,0.5,0.6,1.1,0.8,1.6h0.1v-16.9h3.4v21.3H47l-9-15.2c-0.3-0.5-0.7-1.2-0.9-1.9H37
		v17.1h-3.3V-387.9z"/>
	<polygon class="st6" points="56.5,-387.9 70.5,-387.9 70.5,-385 59.8,-385 59.8,-378.7 69.5,-378.7 69.5,-375.8 59.8,-375.8 
		59.8,-369.5 70.5,-369.5 70.5,-366.6 56.5,-366.6 	"/>
	<path class="st6" d="M72.6-377.3c0-6.7,3.9-11,9.9-11c6,0,9.9,4.3,9.9,11c0,6.7-3.9,11-9.9,11C76.5-366.3,72.6-370.6,72.6-377.3z
		 M88.9-377.3c0-4.9-2.5-8-6.4-8c-3.9,0-6.4,3.1-6.4,8s2.5,8,6.4,8C86.4-369.3,88.9-372.4,88.9-377.3z"/>
	<polygon class="st6" points="99.6,-385.1 92.7,-385.1 92.7,-387.9 109.8,-387.9 109.8,-385.1 102.9,-385.1 102.9,-366.6 
		99.6,-366.6 	"/>
	<polygon class="st6" points="112.2,-387.9 126.3,-387.9 126.3,-385 115.5,-385 115.5,-378.7 125.2,-378.7 125.2,-375.8 
		115.5,-375.8 115.5,-369.5 126.3,-369.5 126.3,-366.6 112.2,-366.6 	"/>
	<path class="st6" d="M128.3-377.3c0-6.4,3.4-11,9.7-11c4.1,0,7.3,2.2,8.6,6l-3,1.2c-0.7-2.6-2.8-4.2-5.6-4.2c-3.9,0-6.3,3-6.3,7.9
		c0,5,2.5,8.1,6.4,8.1c2.6,0,4.8-1.6,5.7-4.3l3,1.3c-1.3,3.8-4.6,6-8.6,6C131.7-366.3,128.3-370.9,128.3-377.3z"/>
	<polygon class="st6" points="150.1,-387.9 153.4,-387.9 153.4,-378.7 163.2,-378.7 163.2,-387.9 166.6,-387.9 166.6,-366.6 
		163.2,-366.6 163.2,-375.8 153.4,-375.8 153.4,-366.6 150.1,-366.6 	"/>
	<path class="st6" d="M177.5-377.3c0-6.4,3.4-11,9.7-11c4.1,0,7.3,2.2,8.6,6l-3,1.2c-0.7-2.6-2.8-4.2-5.6-4.2c-3.9,0-6.3,3-6.3,7.9
		c0,5,2.5,8.1,6.4,8.1c2.6,0,4.8-1.6,5.7-4.3l3,1.3c-1.3,3.8-4.6,6-8.6,6C180.9-366.3,177.5-370.9,177.5-377.3z"/>
	<path class="st6" d="M197.8-377.3c0-6.7,3.9-11,9.9-11c6,0,9.9,4.3,9.9,11c0,6.7-3.9,11-9.9,11
		C201.7-366.3,197.8-370.6,197.8-377.3z M214.1-377.3c0-4.9-2.5-8-6.4-8s-6.4,3.1-6.4,8s2.5,8,6.4,8S214.1-372.4,214.1-377.3z"/>
	<path class="st6" d="M221.4-387.9h5.1l5.7,17.7l5.7-17.7h5.2v21.3h-3.4v-17.7h-0.1c0,0.4-0.2,1-0.4,1.6l-5.2,16h-3.5l-5.2-16.2
		c-0.2-0.4-0.4-1.1-0.4-1.5h-0.2v17.7h-3.3V-387.9z"/>
	<path class="st6" d="M248.5-387.9h9.2c4.4,0,7.2,2.6,7.2,6.8c0,4.2-2.6,6.6-7.2,6.6h-5.9v7.9h-3.3V-387.9z M257.6-377.4
		c2.6,0,3.9-1.3,3.9-3.7c0-2.4-1.4-3.8-3.9-3.8h-5.8v7.5H257.6z"/>
	<path class="st6" d="M267-377.3c0-6.7,3.9-11,9.9-11c6,0,9.9,4.3,9.9,11c0,6.7-3.9,11-9.9,11C270.9-366.3,267-370.6,267-377.3z
		 M283.3-377.3c0-4.9-2.5-8-6.4-8c-3.9,0-6.4,3.1-6.4,8s2.5,8,6.4,8C280.8-369.3,283.3-372.4,283.3-377.3z"/>
	<path class="st6" d="M288.6-371.7l2.6-1.7c1.3,2.8,3.3,4.1,5.6,4.1c2.2,0,3.7-1.2,3.7-3.1c0-2.3-2-3.1-4.6-4
		c-2.9-1-6.1-2.3-6.1-6.1c0-3.5,2.7-5.7,6.6-5.7c2.5,0,4.7,0.9,6.6,3.2l-2,2c-1.5-1.8-3.1-2.5-4.8-2.5c-1.9,0-3.1,1-3.1,2.5
		c0,1.9,1.9,2.7,4.4,3.6c3,1.1,6.4,2.5,6.4,6.6c0,3.8-3,6.4-7.1,6.4C293.5-366.4,290.3-368,288.6-371.7z"/>
	<rect x="307.9" y="-387.9" class="st6" width="3.3" height="21.3"/>
	<polygon class="st6" points="320.5,-385.1 313.6,-385.1 313.6,-387.9 330.7,-387.9 330.7,-385.1 323.8,-385.1 323.8,-366.6 
		320.5,-366.6 	"/>
	<polygon class="st6" points="333.1,-387.9 347.1,-387.9 347.1,-385 336.4,-385 336.4,-378.7 346.1,-378.7 346.1,-375.8 
		336.4,-375.8 336.4,-369.5 347.1,-369.5 347.1,-366.6 333.1,-366.6 	"/>
</g>
<g>
	
		<linearGradient id="SVGID_6_" gradientUnits="userSpaceOnUse" x1="-96.7665" y1="-597.8802" x2="-95.0981" y2="-597.8802" gradientTransform="matrix(-65.2068 0 0 -65.2068 -6077.9731 -38932.9531)">
		<stop  offset="0" style="stop-color:#304598"/>
		<stop  offset="0.1807" style="stop-color:#304598"/>
		<stop  offset="0.3936" style="stop-color:#3C56A4"/>
		<stop  offset="0.5569" style="stop-color:#43B4E7"/>
		<stop  offset="0.5762" style="stop-color:#62BFEA"/>
		<stop  offset="0.6041" style="stop-color:#88CCEF"/>
		<stop  offset="0.6318" style="stop-color:#A6D7F2"/>
		<stop  offset="0.6591" style="stop-color:#BBDEF4"/>
		<stop  offset="0.6855" style="stop-color:#C8E2F6"/>
		<stop  offset="0.7104" style="stop-color:#CCE4F6"/>
		<stop  offset="0.7346" style="stop-color:#C6E2F5"/>
		<stop  offset="0.7683" style="stop-color:#B3DBF3"/>
		<stop  offset="0.8076" style="stop-color:#96D1F0"/>
		<stop  offset="0.8509" style="stop-color:#6DC3EC"/>
		<stop  offset="0.8886" style="stop-color:#43B4E7"/>
		<stop  offset="1" style="stop-color:#43B4E7"/>
	</linearGradient>
	<path class="st7" d="M123.1,58.5c31.8,0,63.5,0,95.3,0c4.5,0,9,0,13.5,0c7.1,0,7.2-11.1,0-11.1c-31.8,0-63.5,0-95.3,0
		c-4.5,0-9,0-13.5,0C115.9,47.3,115.9,58.5,123.1,58.5z"/>
	
		<linearGradient id="SVGID_7_" gradientUnits="userSpaceOnUse" x1="-91.9866" y1="-586.0618" x2="-90.3182" y2="-586.0618" gradientTransform="matrix(206.3112 0 0 206.3112 18983.2305 121031.875)">
		<stop  offset="0" style="stop-color:#F7AB1B"/>
		<stop  offset="5.940594e-02" style="stop-color:#FFC70F"/>
		<stop  offset="6.760246e-02" style="stop-color:#FFC817"/>
		<stop  offset="8.044036e-02" style="stop-color:#FFCC2D"/>
		<stop  offset="9.621588e-02" style="stop-color:#FFD252"/>
		<stop  offset="0.1114" style="stop-color:#FFD97B"/>
		<stop  offset="0.4635" style="stop-color:#FDE7A3"/>
		<stop  offset="0.5347" style="stop-color:#FDEAAC"/>
		<stop  offset="0.9381" style="stop-color:#FFD97B"/>
		<stop  offset="0.9466" style="stop-color:#FFD24F"/>
		<stop  offset="0.9579" style="stop-color:#FFC70F"/>
		<stop  offset="0.9752" style="stop-color:#FDBF12"/>
		<stop  offset="1" style="stop-color:#F7AB1B"/>
	</linearGradient>
	<path class="st8" d="M5.4,126.3c11.4,0,22.8,0,34.2,0c27.4,0,54.7,0,82.1,0c33.1,0,66.2,0,99.4,0c28.7,0,57.3,0,86,0
		c13.9,0,28,0.6,42,0c0.2,0,0.4,0,0.6,0c7.1,0,7.2-11.1,0-11.1c-11.4,0-22.8,0-34.2,0c-27.4,0-54.7,0-82.1,0c-33.4,0-65.9,0-99.4,0
		c-28.7,0-57.3,0-86,0c-13.9,0-28-0.6-42,0c-0.2,0-0.4,0-0.6,0C-1.8,115.2-1.8,126.3,5.4,126.3z"/>
	
		<linearGradient id="SVGID_8_" gradientUnits="userSpaceOnUse" x1="-103.2297" y1="-585.631" x2="-101.5613" y2="-585.631" gradientTransform="matrix(4.000000e-15 -57.3585 57.3585 4.000000e-15 33659.6016 -5820.356)">
		<stop  offset="0" style="stop-color:#304598"/>
		<stop  offset="0.1807" style="stop-color:#304598"/>
		<stop  offset="0.3936" style="stop-color:#3C56A4"/>
		<stop  offset="0.5569" style="stop-color:#43B4E7"/>
		<stop  offset="0.5762" style="stop-color:#62BFEA"/>
		<stop  offset="0.6041" style="stop-color:#88CCEF"/>
		<stop  offset="0.6318" style="stop-color:#A6D7F2"/>
		<stop  offset="0.6591" style="stop-color:#BBDEF4"/>
		<stop  offset="0.6855" style="stop-color:#C8E2F6"/>
		<stop  offset="0.7104" style="stop-color:#CCE4F6"/>
		<stop  offset="0.7346" style="stop-color:#C6E2F5"/>
		<stop  offset="0.7683" style="stop-color:#B3DBF3"/>
		<stop  offset="0.8076" style="stop-color:#96D1F0"/>
		<stop  offset="0.8509" style="stop-color:#6DC3EC"/>
		<stop  offset="0.8886" style="stop-color:#43B4E7"/>
		<stop  offset="1" style="stop-color:#43B4E7"/>
	</linearGradient>
	<path class="st9" d="M46.3,97.2c-9.1-15.7-18.1-31.4-27.2-47.1c0,1.9,0,3.7,0,5.6C28.1,40,37.2,24.3,46.3,8.6c-3.2,0-6.4,0-9.6,0
		c15.9,27.5,31.8,55,47.7,82.5c2.2,3.9,4.5,7.8,6.7,11.7c2.1,3.6,7.5,3.6,9.6,0c8.1-14,16.2-28,24.2-42c1-1.7,2.2-3.4,3-5.1
		c1.5-3.4,0-5.7-1.7-8.5c-4.6-8-9.3-16-13.9-24.1c-3.9-6.7-7.8-13.4-11.6-20.2c-3.6-6.2-13.2-0.6-9.6,5.6
		c9.1,15.7,18.1,31.4,27.2,47.1c0-1.9,0-3.7,0-5.6c-9.1,15.7-18.1,31.4-27.2,47.1c3.2,0,6.4,0,9.6,0C84.8,69.7,68.9,42.2,53,14.7
		c-2.2-3.9-4.5-7.8-6.7-11.7c-2.1-3.6-7.5-3.6-9.6,0c-8.1,14-16.2,28-24.2,42c-1,1.7-2.2,3.4-3,5.1c-1.5,3.4,0,5.7,1.7,8.5
		c4.6,8,9.3,16,13.9,24.1c3.9,6.7,7.8,13.4,11.6,20.2C40.3,109,49.9,103.4,46.3,97.2z"/>
	
		<linearGradient id="SVGID_9_" gradientUnits="userSpaceOnUse" x1="-103.3084" y1="-584.853" x2="-101.6401" y2="-584.853" gradientTransform="matrix(4.000000e-15 -56.9146 56.9146 4.000000e-15 33462.1602 -5779.3848)">
		<stop  offset="0" style="stop-color:#304598"/>
		<stop  offset="0.1807" style="stop-color:#304598"/>
		<stop  offset="0.3936" style="stop-color:#3C56A4"/>
		<stop  offset="0.5569" style="stop-color:#43B4E7"/>
		<stop  offset="0.5762" style="stop-color:#62BFEA"/>
		<stop  offset="0.6041" style="stop-color:#88CCEF"/>
		<stop  offset="0.6318" style="stop-color:#A6D7F2"/>
		<stop  offset="0.6591" style="stop-color:#BBDEF4"/>
		<stop  offset="0.6855" style="stop-color:#C8E2F6"/>
		<stop  offset="0.7104" style="stop-color:#CCE4F6"/>
		<stop  offset="0.7346" style="stop-color:#C6E2F5"/>
		<stop  offset="0.7683" style="stop-color:#B3DBF3"/>
		<stop  offset="0.8076" style="stop-color:#96D1F0"/>
		<stop  offset="0.8509" style="stop-color:#6DC3EC"/>
		<stop  offset="0.8886" style="stop-color:#43B4E7"/>
		<stop  offset="1" style="stop-color:#43B4E7"/>
	</linearGradient>
	<path class="st10" d="M216.2,94.4c-18.1,0-36.3,0-54.4,0c1.6,0.9,3.2,1.8,4.8,2.8c-9.1-15.7-18.1-31.4-27.2-47.1c0,1.9,0,3.7,0,5.6
		c9.1-15.7,18.1-31.4,27.2-47.1c-1.6,0.9-3.2,1.8-4.8,2.8c18.1,0,36.3,0,54.4,0c7.1,0,7.2-11.1,0-11.1c-16.4,0-32.7,0-49.1,0
		c-2.1,0-4.7-0.4-6.8,0.2c-2.8,0.8-4,3.8-5.4,6.1c-4.7,8.2-9.5,16.4-14.2,24.6c-3.6,6.2-8,12.3-10.9,18.8
		c-2.4,5.5,4.3,13.3,6.9,17.8c5.2,8.9,10.3,17.9,15.5,26.8c2.7,4.7,4.6,10.8,10.8,10.9c17.7,0.5,35.4,0,53.1,0
		C223.4,105.6,223.4,94.4,216.2,94.4z"/>
	
		<linearGradient id="SVGID_10_" gradientUnits="userSpaceOnUse" x1="-103.3084" y1="-584.0743" x2="-101.6401" y2="-584.0743" gradientTransform="matrix(4.000000e-15 -56.9146 56.9146 4.000000e-15 33528.4805 -5779.3848)">
		<stop  offset="0" style="stop-color:#304598"/>
		<stop  offset="0.1807" style="stop-color:#304598"/>
		<stop  offset="0.3936" style="stop-color:#3C56A4"/>
		<stop  offset="0.5569" style="stop-color:#43B4E7"/>
		<stop  offset="0.5762" style="stop-color:#62BFEA"/>
		<stop  offset="0.6041" style="stop-color:#88CCEF"/>
		<stop  offset="0.6318" style="stop-color:#A6D7F2"/>
		<stop  offset="0.6591" style="stop-color:#BBDEF4"/>
		<stop  offset="0.6855" style="stop-color:#C8E2F6"/>
		<stop  offset="0.7104" style="stop-color:#CCE4F6"/>
		<stop  offset="0.7346" style="stop-color:#C6E2F5"/>
		<stop  offset="0.7683" style="stop-color:#B3DBF3"/>
		<stop  offset="0.8076" style="stop-color:#96D1F0"/>
		<stop  offset="0.8509" style="stop-color:#6DC3EC"/>
		<stop  offset="0.8886" style="stop-color:#43B4E7"/>
		<stop  offset="1" style="stop-color:#43B4E7"/>
	</linearGradient>
	<path class="st11" d="M236.7,55.7c9.1-15.7,18.1-31.4,27.2-47.1c-1.6,0.9-3.2,1.8-4.8,2.8c18.1,0,36.3,0,54.4,0
		c-1.6-0.9-3.2-1.8-4.8-2.8c9.1,15.7,18.1,31.4,27.2,47.1c0-1.9,0-3.7,0-5.6c-9.1,15.7-18.1,31.4-27.2,47.1c1.6-0.9,3.2-1.8,4.8-2.8
		c-18.1,0-36.3,0-54.4,0c1.6,0.9,3.2,1.8,4.8,2.8c-9.1-15.7-18.1-31.4-27.2-47.1c-3.6-6.2-13.2-0.6-9.6,5.6c6,10.4,12,20.7,18,31.1
		c2.9,5,5.6,10.1,8.7,15.1c2.4,3.8,5.5,3.7,9.5,3.7c14.5,0,28.9,0,43.4,0c4.2,0,9,0.9,11.8-2.9c2.7-3.8,4.8-8.3,7.1-12.3
		c4-7,8.1-14,12.1-21c2.5-4.4,5.5-8.7,7.6-13.2c2.1-4.4-0.6-7.5-2.7-11.1c-3.6-6.3-7.3-12.6-10.9-18.9c-3.6-6.3-7.2-12.5-10.9-18.8
		c-2-3.5-3.4-6.9-8.1-7.1c-13.5-0.5-27,0-40.5,0c-4.3,0-8.8-0.4-13,0c-4.8,0.5-6.7,5.9-8.8,9.6c-7.2,12.4-14.4,24.9-21.6,37.3
		c-0.6,1-1.1,1.9-1.7,2.9C223.5,56.3,233.1,61.9,236.7,55.7z"/>
	<polygon class="st5" points="261.1,52.9 273.7,31.1 298.8,31.1 311.4,52.9 298.8,74.7 273.7,74.7 	"/>
	<path class="st12" d="M24,141.6h4l9.1,15.3c0.3,0.5,0.6,1.1,0.8,1.6h0.1v-16.9h3.4v21.3h-4.1l-9-15.2c-0.3-0.5-0.7-1.2-0.9-1.9
		h-0.1v17.1H24V141.6z"/>
	<polygon class="st12" points="46.8,141.6 60.9,141.6 60.9,144.5 50.1,144.5 50.1,150.8 59.8,150.8 59.8,153.7 50.1,153.7 50.1,160 
		60.9,160 60.9,162.9 46.8,162.9 	"/>
	<path class="st12" d="M63,152.3c0-6.7,3.9-11,9.9-11c6,0,9.9,4.3,9.9,11c0,6.7-3.9,11-9.9,11C66.8,163.2,63,159,63,152.3z
		 M79.2,152.3c0-4.9-2.5-8-6.4-8c-3.9,0-6.4,3.1-6.4,8c0,4.9,2.5,8,6.4,8C76.7,160.3,79.2,157.2,79.2,152.3z"/>
	<polygon class="st12" points="89.9,144.4 83,144.4 83,141.6 100.1,141.6 100.1,144.4 93.3,144.4 93.3,162.9 89.9,162.9 	"/>
	<polygon class="st12" points="102.5,141.6 116.6,141.6 116.6,144.5 105.9,144.5 105.9,150.8 115.5,150.8 115.5,153.7 105.9,153.7 
		105.9,160 116.6,160 116.6,162.9 102.5,162.9 	"/>
	<path class="st12" d="M118.6,152.3c0-6.4,3.4-11,9.7-11c4.1,0,7.3,2.2,8.6,6l-3,1.2c-0.7-2.6-2.8-4.2-5.6-4.2c-3.9,0-6.3,3-6.3,7.9
		c0,5,2.5,8.1,6.4,8.1c2.6,0,4.8-1.6,5.7-4.3l3,1.3c-1.3,3.8-4.6,6-8.6,6C122.1,163.2,118.6,158.6,118.6,152.3z"/>
	<polygon class="st12" points="140.4,141.7 143.8,141.7 143.8,150.8 153.6,150.8 153.6,141.7 156.9,141.7 156.9,162.9 153.6,162.9 
		153.6,153.8 143.8,153.8 143.8,162.9 140.4,162.9 	"/>
	<path class="st12" d="M167.8,152.3c0-6.4,3.4-11,9.7-11c4.1,0,7.3,2.2,8.6,6l-3,1.2c-0.7-2.6-2.8-4.2-5.6-4.2c-3.9,0-6.3,3-6.3,7.9
		c0,5,2.5,8.1,6.4,8.1c2.6,0,4.8-1.6,5.7-4.3l3,1.3c-1.3,3.8-4.6,6-8.6,6C171.2,163.2,167.8,158.6,167.8,152.3z"/>
	<path class="st12" d="M188.1,152.3c0-6.7,3.9-11,9.9-11s9.9,4.3,9.9,11c0,6.7-3.9,11-9.9,11S188.1,159,188.1,152.3z M204.4,152.3
		c0-4.9-2.5-8-6.4-8s-6.4,3.1-6.4,8c0,4.9,2.5,8,6.4,8S204.4,157.2,204.4,152.3z"/>
	<path class="st12" d="M211.7,141.7h5.1l5.7,17.7l5.7-17.7h5.2v21.3h-3.4v-17.7H230c0,0.4-0.2,1-0.4,1.6l-5.2,16h-3.5l-5.2-16.2
		c-0.2-0.4-0.4-1.1-0.4-1.5H215v17.7h-3.3V141.7z"/>
	<path class="st12" d="M238.8,141.6h9.2c4.4,0,7.2,2.6,7.2,6.8c0,4.2-2.6,6.6-7.2,6.6h-5.9v7.9h-3.3V141.6z M247.9,152.1
		c2.6,0,3.9-1.3,3.9-3.7c0-2.4-1.4-3.8-3.9-3.8h-5.8v7.5H247.9z"/>
	<path class="st12" d="M257.3,152.3c0-6.7,3.9-11,9.9-11c6,0,9.9,4.3,9.9,11c0,6.7-3.9,11-9.9,11C261.2,163.2,257.3,159,257.3,152.3
		z M273.6,152.3c0-4.9-2.5-8-6.4-8c-3.9,0-6.4,3.1-6.4,8c0,4.9,2.5,8,6.4,8C271.1,160.3,273.6,157.2,273.6,152.3z"/>
	<path class="st12" d="M279,157.8l2.6-1.7c1.3,2.8,3.3,4.1,5.6,4.1c2.2,0,3.7-1.2,3.7-3.1c0-2.3-2-3.1-4.6-4c-2.9-1-6.1-2.3-6.1-6.1
		c0-3.5,2.7-5.7,6.6-5.7c2.5,0,4.7,0.9,6.6,3.2l-2,2c-1.5-1.8-3.1-2.5-4.8-2.5c-1.9,0-3.1,1-3.1,2.5c0,1.9,1.9,2.7,4.4,3.6
		c3,1.1,6.4,2.5,6.4,6.6c0,3.8-3,6.4-7.1,6.4C283.8,163.2,280.6,161.5,279,157.8z"/>
	<rect x="298.2" y="141.6" class="st12" width="3.3" height="21.3"/>
	<polygon class="st12" points="310.8,144.4 303.9,144.4 303.9,141.6 321,141.6 321,144.4 314.1,144.4 314.1,162.9 310.8,162.9 	"/>
	<polygon class="st12" points="323.4,141.6 337.5,141.6 337.5,144.5 326.8,144.5 326.8,150.8 336.4,150.8 336.4,153.7 326.8,153.7 
		326.8,160 337.5,160 337.5,162.9 323.4,162.9 	"/>
</g>
</svg>
